# xmcd
#
# Track frame offsets:
#	150
#	30730
#	46319
#	73595
#	92052
#	109242
#	125457
#	147691
#	165369
#	188377
#	210268
#	235004
#	256487
#	280325
#
# Disc length: 4022 seconds
#
# Revision: 2
# Processed by: cddbd v1.5.1PL2 Copyright (c) Steve Scherf et al.
# Submitted via: EasyCDDAExtractor 8.0.2.1
#
DISCID=c10fb40e
DTITLE=Dio - MTL Arena Samara 18-09-05 Disc 1
DYEAR=2005
DGENRE=Hard Rock
TTITLE0=Tarot Woman
TTITLE1=The Sign Of The Southern Cross
TTITLE2=One Night In The City
TTITLE3=Evil Eyes
TTITLE4=Video Break
TTITLE5=Stand Up And Shout
TTITLE6=Holy Diver
TTITLE7=Gypsy
TTITLE8=Drum Solo
TTITLE9=Caught In The Middle
TTITLE10=Don't Talk To Strangers
TTITLE11=Straight Through The Heart
TTITLE12=Invisible
TTITLE13=Rainbow In The Dark
EXTD=
EXTT0=
EXTT1=
EXTT2=
EXTT3=
EXTT4=
EXTT5=
EXTT6=
EXTT7=
EXTT8=
EXTT9=
EXTT10=
EXTT11=
EXTT12=
EXTT13=
PLAYORDER=
